# xmcd
#
# Track frame offsets: 
#        150
#        17502
#        36915
#        52240
#        69237
#        87877
#        106649
#        120536
#        140581
#        156136
#        173245
#        190033
#        206708
#        228210
#
# Disc length: 3354 seconds
#
# Revision: 0
# Processed by: cddbd v1.5.2PL0 Copyright (c) Steve Scherf et al.
# Submitted via: ExactAudioCopy v0.99pb5
#
DISCID=b30d180e
DTITLE=Billy Ray Cyrus - Back To Tennessee
DYEAR=2009
DGENRE=Country
TTITLE0=Ready, Set, Don't Go
TTITLE1=Back To Tennessee
TTITLE2=Thrillbilly
TTITLE3=He's Mine
TTITLE4=Somebody Said A Prayer
TTITLE5=A Good Day
TTITLE6=I Could Be The One
TTITLE7=Like Nothing Else
TTITLE8=Country As Country Can Be
TTITLE9=Love Is The Lesson
TTITLE10=Give It To Somebody
TTITLE11=Real Gone
TTITLE12=Butterrfly Fly Away
TTITLE13=Over The Rainbow
EXTD=
EXTT0=
EXTT1=
EXTT2=
EXTT3=
EXTT4=
EXTT5=
EXTT6=
EXTT7=
EXTT8=
EXTT9=
EXTT10=
EXTT11=
EXTT12=
EXTT13=
PLAYORDER=
